<mxfile host="Electron" modified="2023-05-23T01:44:55.952Z" agent="Mozilla/5.0 (Windows NT 10.0; Win64; x64) AppleWebKit/537.36 (KHTML, like Gecko) draw.io/21.2.8 Chrome/112.0.5615.165 Electron/24.2.0 Safari/537.36" etag="2yPeZEp338RJ6wuLNkbK" version="21.2.8" type="device">
  <diagram id="C5RBs43oDa-KdzZeNtuy" name="Page-1">
    <mxGraphModel dx="2260" dy="1447" grid="1" gridSize="10" guides="1" tooltips="1" connect="1" arrows="1" fold="1" page="1" pageScale="1" pageWidth="827" pageHeight="1169" math="0" shadow="0">
      <root>
        <mxCell id="WIyWlLk6GJQsqaUBKTNV-0" />
        <mxCell id="WIyWlLk6GJQsqaUBKTNV-1" parent="WIyWlLk6GJQsqaUBKTNV-0" />
        <mxCell id="Id21dAkma_MPSwXrXoHn-33" style="edgeStyle=orthogonalEdgeStyle;rounded=0;orthogonalLoop=1;jettySize=auto;html=1;" parent="WIyWlLk6GJQsqaUBKTNV-1" source="zkfFHV4jXpPFQw0GAbJ--17" target="Id21dAkma_MPSwXrXoHn-26" edge="1">
          <mxGeometry relative="1" as="geometry">
            <Array as="points">
              <mxPoint x="530" y="290" />
            </Array>
          </mxGeometry>
        </mxCell>
        <mxCell id="Id21dAkma_MPSwXrXoHn-60" style="edgeStyle=orthogonalEdgeStyle;rounded=0;orthogonalLoop=1;jettySize=auto;html=1;" parent="WIyWlLk6GJQsqaUBKTNV-1" source="zkfFHV4jXpPFQw0GAbJ--17" target="Id21dAkma_MPSwXrXoHn-47" edge="1">
          <mxGeometry relative="1" as="geometry">
            <Array as="points">
              <mxPoint x="380" y="90" />
            </Array>
          </mxGeometry>
        </mxCell>
        <mxCell id="xruAeM29R6y8BNOT5qQD-33" style="edgeStyle=orthogonalEdgeStyle;rounded=0;orthogonalLoop=1;jettySize=auto;html=1;" edge="1" parent="WIyWlLk6GJQsqaUBKTNV-1" source="zkfFHV4jXpPFQw0GAbJ--17" target="xruAeM29R6y8BNOT5qQD-28">
          <mxGeometry relative="1" as="geometry">
            <Array as="points">
              <mxPoint x="535" y="450" />
              <mxPoint x="535" y="508" />
            </Array>
          </mxGeometry>
        </mxCell>
        <mxCell id="zkfFHV4jXpPFQw0GAbJ--17" value="LLamada" style="swimlane;fontStyle=0;align=center;verticalAlign=top;childLayout=stackLayout;horizontal=1;startSize=26;horizontalStack=0;resizeParent=1;resizeLast=0;collapsible=1;marginBottom=0;rounded=0;shadow=0;strokeWidth=1;" parent="WIyWlLk6GJQsqaUBKTNV-1" vertex="1">
          <mxGeometry x="290" y="200" width="160" height="450" as="geometry">
            <mxRectangle x="550" y="140" width="160" height="26" as="alternateBounds" />
          </mxGeometry>
        </mxCell>
        <mxCell id="xruAeM29R6y8BNOT5qQD-36" value="descripcionOperador" style="text;align=left;verticalAlign=top;spacingLeft=4;spacingRight=4;overflow=hidden;rotatable=0;points=[[0,0.5],[1,0.5]];portConstraint=eastwest;rounded=0;shadow=0;html=0;" vertex="1" parent="zkfFHV4jXpPFQw0GAbJ--17">
          <mxGeometry y="26" width="160" height="26" as="geometry" />
        </mxCell>
        <mxCell id="xruAeM29R6y8BNOT5qQD-37" value="detalleAccionRequerida" style="text;align=left;verticalAlign=top;spacingLeft=4;spacingRight=4;overflow=hidden;rotatable=0;points=[[0,0.5],[1,0.5]];portConstraint=eastwest;rounded=0;shadow=0;html=0;" vertex="1" parent="zkfFHV4jXpPFQw0GAbJ--17">
          <mxGeometry y="52" width="160" height="26" as="geometry" />
        </mxCell>
        <mxCell id="zkfFHV4jXpPFQw0GAbJ--20" value="duracion" style="text;align=left;verticalAlign=top;spacingLeft=4;spacingRight=4;overflow=hidden;rotatable=0;points=[[0,0.5],[1,0.5]];portConstraint=eastwest;rounded=0;shadow=0;html=0;" parent="zkfFHV4jXpPFQw0GAbJ--17" vertex="1">
          <mxGeometry y="78" width="160" height="26" as="geometry" />
        </mxCell>
        <mxCell id="xruAeM29R6y8BNOT5qQD-25" value="encuestaEnviada" style="text;align=left;verticalAlign=top;spacingLeft=4;spacingRight=4;overflow=hidden;rotatable=0;points=[[0,0.5],[1,0.5]];portConstraint=eastwest;rounded=0;shadow=0;html=0;" vertex="1" parent="zkfFHV4jXpPFQw0GAbJ--17">
          <mxGeometry y="104" width="160" height="26" as="geometry" />
        </mxCell>
        <mxCell id="xruAeM29R6y8BNOT5qQD-38" value="observacionAuditor" style="text;align=left;verticalAlign=top;spacingLeft=4;spacingRight=4;overflow=hidden;rotatable=0;points=[[0,0.5],[1,0.5]];portConstraint=eastwest;rounded=0;shadow=0;html=0;" vertex="1" parent="zkfFHV4jXpPFQw0GAbJ--17">
          <mxGeometry y="130" width="160" height="26" as="geometry" />
        </mxCell>
        <mxCell id="Id21dAkma_MPSwXrXoHn-54" value="cambioEstado: CambioEstado" style="text;align=left;verticalAlign=top;spacingLeft=4;spacingRight=4;overflow=hidden;rotatable=0;points=[[0,0.5],[1,0.5]];portConstraint=eastwest;rounded=0;shadow=0;html=0;" parent="zkfFHV4jXpPFQw0GAbJ--17" vertex="1">
          <mxGeometry y="156" width="160" height="26" as="geometry" />
        </mxCell>
        <mxCell id="Id21dAkma_MPSwXrXoHn-56" value="repuestaCliente: RepuestaCliente" style="text;align=left;verticalAlign=top;spacingLeft=4;spacingRight=4;overflow=hidden;rotatable=0;points=[[0,0.5],[1,0.5]];portConstraint=eastwest;rounded=0;shadow=0;html=0;" parent="zkfFHV4jXpPFQw0GAbJ--17" vertex="1">
          <mxGeometry y="182" width="160" height="26" as="geometry" />
        </mxCell>
        <mxCell id="xruAeM29R6y8BNOT5qQD-39" value="cliente: Cliente" style="text;align=left;verticalAlign=top;spacingLeft=4;spacingRight=4;overflow=hidden;rotatable=0;points=[[0,0.5],[1,0.5]];portConstraint=eastwest;rounded=0;shadow=0;html=0;" vertex="1" parent="zkfFHV4jXpPFQw0GAbJ--17">
          <mxGeometry y="208" width="160" height="26" as="geometry" />
        </mxCell>
        <mxCell id="zkfFHV4jXpPFQw0GAbJ--23" value="" style="line;html=1;strokeWidth=1;align=left;verticalAlign=middle;spacingTop=-1;spacingLeft=3;spacingRight=3;rotatable=0;labelPosition=right;points=[];portConstraint=eastwest;" parent="zkfFHV4jXpPFQw0GAbJ--17" vertex="1">
          <mxGeometry y="234" width="160" height="8" as="geometry" />
        </mxCell>
        <mxCell id="Id21dAkma_MPSwXrXoHn-57" value="esDePeriodo()" style="text;align=left;verticalAlign=top;spacingLeft=4;spacingRight=4;overflow=hidden;rotatable=0;points=[[0,0.5],[1,0.5]];portConstraint=eastwest;rounded=0;shadow=0;html=0;" parent="zkfFHV4jXpPFQw0GAbJ--17" vertex="1">
          <mxGeometry y="242" width="160" height="26" as="geometry" />
        </mxCell>
        <mxCell id="Id21dAkma_MPSwXrXoHn-59" value="getRepuesta()" style="text;align=left;verticalAlign=top;spacingLeft=4;spacingRight=4;overflow=hidden;rotatable=0;points=[[0,0.5],[1,0.5]];portConstraint=eastwest;rounded=0;shadow=0;html=0;" parent="zkfFHV4jXpPFQw0GAbJ--17" vertex="1">
          <mxGeometry y="268" width="160" height="26" as="geometry" />
        </mxCell>
        <mxCell id="xruAeM29R6y8BNOT5qQD-2" value="getDuracion()" style="text;align=left;verticalAlign=top;spacingLeft=4;spacingRight=4;overflow=hidden;rotatable=0;points=[[0,0.5],[1,0.5]];portConstraint=eastwest;rounded=0;shadow=0;html=0;" vertex="1" parent="zkfFHV4jXpPFQw0GAbJ--17">
          <mxGeometry y="294" width="160" height="26" as="geometry" />
        </mxCell>
        <mxCell id="xruAeM29R6y8BNOT5qQD-26" value="calcularDuracion()" style="text;align=left;verticalAlign=top;spacingLeft=4;spacingRight=4;overflow=hidden;rotatable=0;points=[[0,0.5],[1,0.5]];portConstraint=eastwest;rounded=0;shadow=0;html=0;" vertex="1" parent="zkfFHV4jXpPFQw0GAbJ--17">
          <mxGeometry y="320" width="160" height="26" as="geometry" />
        </mxCell>
        <mxCell id="xruAeM29R6y8BNOT5qQD-3" value="determinarEstadoInicial()" style="text;align=left;verticalAlign=top;spacingLeft=4;spacingRight=4;overflow=hidden;rotatable=0;points=[[0,0.5],[1,0.5]];portConstraint=eastwest;rounded=0;shadow=0;html=0;" vertex="1" parent="zkfFHV4jXpPFQw0GAbJ--17">
          <mxGeometry y="346" width="160" height="26" as="geometry" />
        </mxCell>
        <mxCell id="xruAeM29R6y8BNOT5qQD-4" value="determinarUltimoEstado()" style="text;align=left;verticalAlign=top;spacingLeft=4;spacingRight=4;overflow=hidden;rotatable=0;points=[[0,0.5],[1,0.5]];portConstraint=eastwest;rounded=0;shadow=0;html=0;" vertex="1" parent="zkfFHV4jXpPFQw0GAbJ--17">
          <mxGeometry y="372" width="160" height="26" as="geometry" />
        </mxCell>
        <mxCell id="xruAeM29R6y8BNOT5qQD-27" value="getNombreCleinteDeLLamda()" style="text;align=left;verticalAlign=top;spacingLeft=4;spacingRight=4;overflow=hidden;rotatable=0;points=[[0,0.5],[1,0.5]];portConstraint=eastwest;rounded=0;shadow=0;html=0;" vertex="1" parent="zkfFHV4jXpPFQw0GAbJ--17">
          <mxGeometry y="398" width="160" height="26" as="geometry" />
        </mxCell>
        <mxCell id="xruAeM29R6y8BNOT5qQD-41" value="tieneRtas()" style="text;align=left;verticalAlign=top;spacingLeft=4;spacingRight=4;overflow=hidden;rotatable=0;points=[[0,0.5],[1,0.5]];portConstraint=eastwest;rounded=0;shadow=0;html=0;" vertex="1" parent="zkfFHV4jXpPFQw0GAbJ--17">
          <mxGeometry y="424" width="160" height="26" as="geometry" />
        </mxCell>
        <mxCell id="Id21dAkma_MPSwXrXoHn-8" style="edgeStyle=orthogonalEdgeStyle;rounded=0;orthogonalLoop=1;jettySize=auto;html=1;dashed=1;dashPattern=8 8;" parent="WIyWlLk6GJQsqaUBKTNV-1" source="Id21dAkma_MPSwXrXoHn-0" target="zkfFHV4jXpPFQw0GAbJ--17" edge="1">
          <mxGeometry relative="1" as="geometry">
            <Array as="points">
              <mxPoint x="370" y="730" />
              <mxPoint x="370" y="730" />
            </Array>
          </mxGeometry>
        </mxCell>
        <mxCell id="Id21dAkma_MPSwXrXoHn-13" style="edgeStyle=orthogonalEdgeStyle;rounded=0;orthogonalLoop=1;jettySize=auto;html=1;dashed=1;dashPattern=8 8;" parent="WIyWlLk6GJQsqaUBKTNV-1" source="Id21dAkma_MPSwXrXoHn-0" target="Id21dAkma_MPSwXrXoHn-9" edge="1">
          <mxGeometry relative="1" as="geometry">
            <Array as="points">
              <mxPoint x="90" y="890" />
            </Array>
          </mxGeometry>
        </mxCell>
        <mxCell id="xruAeM29R6y8BNOT5qQD-98" style="edgeStyle=orthogonalEdgeStyle;rounded=0;orthogonalLoop=1;jettySize=auto;html=1;dashed=1;dashPattern=8 8;" edge="1" parent="WIyWlLk6GJQsqaUBKTNV-1" source="Id21dAkma_MPSwXrXoHn-0" target="xruAeM29R6y8BNOT5qQD-50">
          <mxGeometry relative="1" as="geometry">
            <Array as="points">
              <mxPoint x="540" y="910" />
              <mxPoint x="540" y="910" />
            </Array>
          </mxGeometry>
        </mxCell>
        <mxCell id="Id21dAkma_MPSwXrXoHn-0" value="GestorConsultarLlamada" style="swimlane;fontStyle=0;align=left;verticalAlign=top;childLayout=stackLayout;horizontal=1;startSize=26;horizontalStack=0;resizeParent=1;resizeLast=0;collapsible=1;marginBottom=0;rounded=0;shadow=0;strokeWidth=1;" parent="WIyWlLk6GJQsqaUBKTNV-1" vertex="1">
          <mxGeometry x="300" y="700" width="190" height="424" as="geometry">
            <mxRectangle x="550" y="140" width="160" height="26" as="alternateBounds" />
          </mxGeometry>
        </mxCell>
        <mxCell id="xruAeM29R6y8BNOT5qQD-69" value="periodo" style="text;align=left;verticalAlign=top;spacingLeft=4;spacingRight=4;overflow=hidden;rotatable=0;points=[[0,0.5],[1,0.5]];portConstraint=eastwest;rounded=0;shadow=0;html=0;" vertex="1" parent="Id21dAkma_MPSwXrXoHn-0">
          <mxGeometry y="26" width="190" height="26" as="geometry" />
        </mxCell>
        <mxCell id="xruAeM29R6y8BNOT5qQD-70" value="llamadaSeleccionada" style="text;align=left;verticalAlign=top;spacingLeft=4;spacingRight=4;overflow=hidden;rotatable=0;points=[[0,0.5],[1,0.5]];portConstraint=eastwest;rounded=0;shadow=0;html=0;" vertex="1" parent="Id21dAkma_MPSwXrXoHn-0">
          <mxGeometry y="52" width="190" height="26" as="geometry" />
        </mxCell>
        <mxCell id="xruAeM29R6y8BNOT5qQD-71" value="nombreCliente" style="text;align=left;verticalAlign=top;spacingLeft=4;spacingRight=4;overflow=hidden;rotatable=0;points=[[0,0.5],[1,0.5]];portConstraint=eastwest;rounded=0;shadow=0;html=0;" vertex="1" parent="Id21dAkma_MPSwXrXoHn-0">
          <mxGeometry y="78" width="190" height="26" as="geometry" />
        </mxCell>
        <mxCell id="xruAeM29R6y8BNOT5qQD-72" value="ultimoEstadoLlamada" style="text;align=left;verticalAlign=top;spacingLeft=4;spacingRight=4;overflow=hidden;rotatable=0;points=[[0,0.5],[1,0.5]];portConstraint=eastwest;rounded=0;shadow=0;html=0;" vertex="1" parent="Id21dAkma_MPSwXrXoHn-0">
          <mxGeometry y="104" width="190" height="26" as="geometry" />
        </mxCell>
        <mxCell id="xruAeM29R6y8BNOT5qQD-73" value="duracion" style="text;align=left;verticalAlign=top;spacingLeft=4;spacingRight=4;overflow=hidden;rotatable=0;points=[[0,0.5],[1,0.5]];portConstraint=eastwest;rounded=0;shadow=0;html=0;" vertex="1" parent="Id21dAkma_MPSwXrXoHn-0">
          <mxGeometry y="130" width="190" height="26" as="geometry" />
        </mxCell>
        <mxCell id="xruAeM29R6y8BNOT5qQD-74" value="datosRepuestas" style="text;align=left;verticalAlign=top;spacingLeft=4;spacingRight=4;overflow=hidden;rotatable=0;points=[[0,0.5],[1,0.5]];portConstraint=eastwest;rounded=0;shadow=0;html=0;" vertex="1" parent="Id21dAkma_MPSwXrXoHn-0">
          <mxGeometry y="156" width="190" height="26" as="geometry" />
        </mxCell>
        <mxCell id="Id21dAkma_MPSwXrXoHn-6" value="" style="line;html=1;strokeWidth=1;align=left;verticalAlign=middle;spacingTop=-1;spacingLeft=3;spacingRight=3;rotatable=0;labelPosition=right;points=[];portConstraint=eastwest;" parent="Id21dAkma_MPSwXrXoHn-0" vertex="1">
          <mxGeometry y="182" width="190" height="8" as="geometry" />
        </mxCell>
        <mxCell id="Id21dAkma_MPSwXrXoHn-7" value="consultarEncuesta()" style="text;align=left;verticalAlign=top;spacingLeft=4;spacingRight=4;overflow=hidden;rotatable=0;points=[[0,0.5],[1,0.5]];portConstraint=eastwest;rounded=0;shadow=0;html=0;" parent="Id21dAkma_MPSwXrXoHn-0" vertex="1">
          <mxGeometry y="190" width="190" height="26" as="geometry" />
        </mxCell>
        <mxCell id="xruAeM29R6y8BNOT5qQD-40" value="periodoSeleccionado()" style="text;align=left;verticalAlign=top;spacingLeft=4;spacingRight=4;overflow=hidden;rotatable=0;points=[[0,0.5],[1,0.5]];portConstraint=eastwest;rounded=0;shadow=0;html=0;" vertex="1" parent="Id21dAkma_MPSwXrXoHn-0">
          <mxGeometry y="216" width="190" height="26" as="geometry" />
        </mxCell>
        <mxCell id="Id21dAkma_MPSwXrXoHn-23" value="filtrarPorPeriodoYRespuestas()" style="text;align=left;verticalAlign=top;spacingLeft=4;spacingRight=4;overflow=hidden;rotatable=0;points=[[0,0.5],[1,0.5]];portConstraint=eastwest;rounded=0;shadow=0;html=0;" parent="Id21dAkma_MPSwXrXoHn-0" vertex="1">
          <mxGeometry y="242" width="190" height="26" as="geometry" />
        </mxCell>
        <mxCell id="xruAeM29R6y8BNOT5qQD-45" value="getDatosLLamada()" style="text;align=left;verticalAlign=top;spacingLeft=4;spacingRight=4;overflow=hidden;rotatable=0;points=[[0,0.5],[1,0.5]];portConstraint=eastwest;rounded=0;shadow=0;html=0;" vertex="1" parent="Id21dAkma_MPSwXrXoHn-0">
          <mxGeometry y="268" width="190" height="26" as="geometry" />
        </mxCell>
        <mxCell id="Id21dAkma_MPSwXrXoHn-72" value="getCliente()" style="text;align=left;verticalAlign=top;spacingLeft=4;spacingRight=4;overflow=hidden;rotatable=0;points=[[0,0.5],[1,0.5]];portConstraint=eastwest;rounded=0;shadow=0;html=0;" parent="Id21dAkma_MPSwXrXoHn-0" vertex="1">
          <mxGeometry y="294" width="190" height="26" as="geometry" />
        </mxCell>
        <mxCell id="xruAeM29R6y8BNOT5qQD-43" value="llamadaSeleccionada()" style="text;align=left;verticalAlign=top;spacingLeft=4;spacingRight=4;overflow=hidden;rotatable=0;points=[[0,0.5],[1,0.5]];portConstraint=eastwest;rounded=0;shadow=0;html=0;" vertex="1" parent="Id21dAkma_MPSwXrXoHn-0">
          <mxGeometry y="320" width="190" height="26" as="geometry" />
        </mxCell>
        <mxCell id="xruAeM29R6y8BNOT5qQD-46" value="MostrarDatosLLamadaSeleccionada()" style="text;align=left;verticalAlign=top;spacingLeft=4;spacingRight=4;overflow=hidden;rotatable=0;points=[[0,0.5],[1,0.5]];portConstraint=eastwest;rounded=0;shadow=0;html=0;" vertex="1" parent="Id21dAkma_MPSwXrXoHn-0">
          <mxGeometry y="346" width="190" height="26" as="geometry" />
        </mxCell>
        <mxCell id="xruAeM29R6y8BNOT5qQD-47" value="solicitarSeleccionFormaGeneracion()" style="text;align=left;verticalAlign=top;spacingLeft=4;spacingRight=4;overflow=hidden;rotatable=0;points=[[0,0.5],[1,0.5]];portConstraint=eastwest;rounded=0;shadow=0;html=0;" vertex="1" parent="Id21dAkma_MPSwXrXoHn-0">
          <mxGeometry y="372" width="190" height="26" as="geometry" />
        </mxCell>
        <mxCell id="xruAeM29R6y8BNOT5qQD-48" value="seleccionGenerarCSV()" style="text;align=left;verticalAlign=top;spacingLeft=4;spacingRight=4;overflow=hidden;rotatable=0;points=[[0,0.5],[1,0.5]];portConstraint=eastwest;rounded=0;shadow=0;html=0;" vertex="1" parent="Id21dAkma_MPSwXrXoHn-0">
          <mxGeometry y="398" width="190" height="26" as="geometry" />
        </mxCell>
        <mxCell id="Id21dAkma_MPSwXrXoHn-12" style="edgeStyle=orthogonalEdgeStyle;rounded=0;orthogonalLoop=1;jettySize=auto;html=1;dashed=1;dashPattern=8 8;" parent="WIyWlLk6GJQsqaUBKTNV-1" source="Id21dAkma_MPSwXrXoHn-9" target="Id21dAkma_MPSwXrXoHn-0" edge="1">
          <mxGeometry relative="1" as="geometry">
            <Array as="points">
              <mxPoint x="170" y="830" />
              <mxPoint x="170" y="830" />
            </Array>
          </mxGeometry>
        </mxCell>
        <mxCell id="Id21dAkma_MPSwXrXoHn-9" value="PantallaConsultarEncuesta" style="swimlane;fontStyle=0;align=left;verticalAlign=top;childLayout=stackLayout;horizontal=1;startSize=26;horizontalStack=0;resizeParent=1;resizeLast=0;collapsible=1;marginBottom=0;rounded=0;shadow=0;strokeWidth=1;" parent="WIyWlLk6GJQsqaUBKTNV-1" vertex="1">
          <mxGeometry x="20" y="650" width="190" height="502" as="geometry">
            <mxRectangle x="550" y="140" width="160" height="26" as="alternateBounds" />
          </mxGeometry>
        </mxCell>
        <mxCell id="xruAeM29R6y8BNOT5qQD-57" value="dateTimePickerDesde" style="text;align=left;verticalAlign=top;spacingLeft=4;spacingRight=4;overflow=hidden;rotatable=0;points=[[0,0.5],[1,0.5]];portConstraint=eastwest;rounded=0;shadow=0;html=0;" vertex="1" parent="Id21dAkma_MPSwXrXoHn-9">
          <mxGeometry y="26" width="190" height="26" as="geometry" />
        </mxCell>
        <mxCell id="xruAeM29R6y8BNOT5qQD-58" value="dateTimePickerHasta" style="text;align=left;verticalAlign=top;spacingLeft=4;spacingRight=4;overflow=hidden;rotatable=0;points=[[0,0.5],[1,0.5]];portConstraint=eastwest;rounded=0;shadow=0;html=0;" vertex="1" parent="Id21dAkma_MPSwXrXoHn-9">
          <mxGeometry y="52" width="190" height="26" as="geometry" />
        </mxCell>
        <mxCell id="xruAeM29R6y8BNOT5qQD-60" value="btnAceptar" style="text;align=left;verticalAlign=top;spacingLeft=4;spacingRight=4;overflow=hidden;rotatable=0;points=[[0,0.5],[1,0.5]];portConstraint=eastwest;rounded=0;shadow=0;html=0;" vertex="1" parent="Id21dAkma_MPSwXrXoHn-9">
          <mxGeometry y="78" width="190" height="26" as="geometry" />
        </mxCell>
        <mxCell id="xruAeM29R6y8BNOT5qQD-61" value="btnCancelar" style="text;align=left;verticalAlign=top;spacingLeft=4;spacingRight=4;overflow=hidden;rotatable=0;points=[[0,0.5],[1,0.5]];portConstraint=eastwest;rounded=0;shadow=0;html=0;" vertex="1" parent="Id21dAkma_MPSwXrXoHn-9">
          <mxGeometry y="104" width="190" height="26" as="geometry" />
        </mxCell>
        <mxCell id="xruAeM29R6y8BNOT5qQD-67" value="btnGenerarCSV" style="text;align=left;verticalAlign=top;spacingLeft=4;spacingRight=4;overflow=hidden;rotatable=0;points=[[0,0.5],[1,0.5]];portConstraint=eastwest;rounded=0;shadow=0;html=0;" vertex="1" parent="Id21dAkma_MPSwXrXoHn-9">
          <mxGeometry y="130" width="190" height="26" as="geometry" />
        </mxCell>
        <mxCell id="xruAeM29R6y8BNOT5qQD-68" value="btnGenerarPDF" style="text;align=left;verticalAlign=top;spacingLeft=4;spacingRight=4;overflow=hidden;rotatable=0;points=[[0,0.5],[1,0.5]];portConstraint=eastwest;rounded=0;shadow=0;html=0;" vertex="1" parent="Id21dAkma_MPSwXrXoHn-9">
          <mxGeometry y="156" width="190" height="26" as="geometry" />
        </mxCell>
        <mxCell id="xruAeM29R6y8BNOT5qQD-62" value="labelPeriodo" style="text;align=left;verticalAlign=top;spacingLeft=4;spacingRight=4;overflow=hidden;rotatable=0;points=[[0,0.5],[1,0.5]];portConstraint=eastwest;rounded=0;shadow=0;html=0;" vertex="1" parent="Id21dAkma_MPSwXrXoHn-9">
          <mxGeometry y="182" width="190" height="26" as="geometry" />
        </mxCell>
        <mxCell id="xruAeM29R6y8BNOT5qQD-63" value="labelDesde" style="text;align=left;verticalAlign=top;spacingLeft=4;spacingRight=4;overflow=hidden;rotatable=0;points=[[0,0.5],[1,0.5]];portConstraint=eastwest;rounded=0;shadow=0;html=0;" vertex="1" parent="Id21dAkma_MPSwXrXoHn-9">
          <mxGeometry y="208" width="190" height="26" as="geometry" />
        </mxCell>
        <mxCell id="xruAeM29R6y8BNOT5qQD-64" value="labelHasta" style="text;align=left;verticalAlign=top;spacingLeft=4;spacingRight=4;overflow=hidden;rotatable=0;points=[[0,0.5],[1,0.5]];portConstraint=eastwest;rounded=0;shadow=0;html=0;" vertex="1" parent="Id21dAkma_MPSwXrXoHn-9">
          <mxGeometry y="234" width="190" height="26" as="geometry" />
        </mxCell>
        <mxCell id="xruAeM29R6y8BNOT5qQD-65" value="panelLLamadas" style="text;align=left;verticalAlign=top;spacingLeft=4;spacingRight=4;overflow=hidden;rotatable=0;points=[[0,0.5],[1,0.5]];portConstraint=eastwest;rounded=0;shadow=0;html=0;" vertex="1" parent="Id21dAkma_MPSwXrXoHn-9">
          <mxGeometry y="260" width="190" height="26" as="geometry" />
        </mxCell>
        <mxCell id="xruAeM29R6y8BNOT5qQD-66" value="panelSeleccionada" style="text;align=left;verticalAlign=top;spacingLeft=4;spacingRight=4;overflow=hidden;rotatable=0;points=[[0,0.5],[1,0.5]];portConstraint=eastwest;rounded=0;shadow=0;html=0;" vertex="1" parent="Id21dAkma_MPSwXrXoHn-9">
          <mxGeometry y="286" width="190" height="26" as="geometry" />
        </mxCell>
        <mxCell id="Id21dAkma_MPSwXrXoHn-10" value="" style="line;html=1;strokeWidth=1;align=left;verticalAlign=middle;spacingTop=-1;spacingLeft=3;spacingRight=3;rotatable=0;labelPosition=right;points=[];portConstraint=eastwest;" parent="Id21dAkma_MPSwXrXoHn-9" vertex="1">
          <mxGeometry y="312" width="190" height="8" as="geometry" />
        </mxCell>
        <mxCell id="Id21dAkma_MPSwXrXoHn-11" value="opcionConsultarEncuesta()" style="text;align=left;verticalAlign=top;spacingLeft=4;spacingRight=4;overflow=hidden;rotatable=0;points=[[0,0.5],[1,0.5]];portConstraint=eastwest;rounded=0;shadow=0;html=0;" parent="Id21dAkma_MPSwXrXoHn-9" vertex="1">
          <mxGeometry y="320" width="190" height="26" as="geometry" />
        </mxCell>
        <mxCell id="Id21dAkma_MPSwXrXoHn-14" value="habilitarPantalla()" style="text;align=left;verticalAlign=top;spacingLeft=4;spacingRight=4;overflow=hidden;rotatable=0;points=[[0,0.5],[1,0.5]];portConstraint=eastwest;rounded=0;shadow=0;html=0;" parent="Id21dAkma_MPSwXrXoHn-9" vertex="1">
          <mxGeometry y="346" width="190" height="26" as="geometry" />
        </mxCell>
        <mxCell id="Id21dAkma_MPSwXrXoHn-15" value="solicitarSeleccionPeriodo()" style="text;align=left;verticalAlign=top;spacingLeft=4;spacingRight=4;overflow=hidden;rotatable=0;points=[[0,0.5],[1,0.5]];portConstraint=eastwest;rounded=0;shadow=0;html=0;" parent="Id21dAkma_MPSwXrXoHn-9" vertex="1">
          <mxGeometry y="372" width="190" height="26" as="geometry" />
        </mxCell>
        <mxCell id="Id21dAkma_MPSwXrXoHn-20" value="tomarSeleccionPeriodo()" style="text;align=left;verticalAlign=top;spacingLeft=4;spacingRight=4;overflow=hidden;rotatable=0;points=[[0,0.5],[1,0.5]];portConstraint=eastwest;rounded=0;shadow=0;html=0;" parent="Id21dAkma_MPSwXrXoHn-9" vertex="1">
          <mxGeometry y="398" width="190" height="26" as="geometry" />
        </mxCell>
        <mxCell id="Id21dAkma_MPSwXrXoHn-71" value="solicitarSeleccionLLamada()" style="text;align=left;verticalAlign=top;spacingLeft=4;spacingRight=4;overflow=hidden;rotatable=0;points=[[0,0.5],[1,0.5]];portConstraint=eastwest;rounded=0;shadow=0;html=0;" parent="Id21dAkma_MPSwXrXoHn-9" vertex="1">
          <mxGeometry y="424" width="190" height="26" as="geometry" />
        </mxCell>
        <mxCell id="xruAeM29R6y8BNOT5qQD-42" value="tomasrSeleccionLLamada()" style="text;align=left;verticalAlign=top;spacingLeft=4;spacingRight=4;overflow=hidden;rotatable=0;points=[[0,0.5],[1,0.5]];portConstraint=eastwest;rounded=0;shadow=0;html=0;" vertex="1" parent="Id21dAkma_MPSwXrXoHn-9">
          <mxGeometry y="450" width="190" height="26" as="geometry" />
        </mxCell>
        <mxCell id="xruAeM29R6y8BNOT5qQD-49" value="tomasrSeleccionCSV()" style="text;align=left;verticalAlign=top;spacingLeft=4;spacingRight=4;overflow=hidden;rotatable=0;points=[[0,0.5],[1,0.5]];portConstraint=eastwest;rounded=0;shadow=0;html=0;" vertex="1" parent="Id21dAkma_MPSwXrXoHn-9">
          <mxGeometry y="476" width="190" height="26" as="geometry" />
        </mxCell>
        <mxCell id="Id21dAkma_MPSwXrXoHn-44" style="edgeStyle=orthogonalEdgeStyle;rounded=0;orthogonalLoop=1;jettySize=auto;html=1;" parent="WIyWlLk6GJQsqaUBKTNV-1" source="Id21dAkma_MPSwXrXoHn-26" target="Id21dAkma_MPSwXrXoHn-37" edge="1">
          <mxGeometry relative="1" as="geometry">
            <Array as="points">
              <mxPoint x="650" y="110" />
              <mxPoint x="650" y="110" />
            </Array>
          </mxGeometry>
        </mxCell>
        <mxCell id="Id21dAkma_MPSwXrXoHn-26" value="CambioEstado" style="swimlane;fontStyle=0;align=center;verticalAlign=top;childLayout=stackLayout;horizontal=1;startSize=26;horizontalStack=0;resizeParent=1;resizeLast=0;collapsible=1;marginBottom=0;rounded=0;shadow=0;strokeWidth=1;" parent="WIyWlLk6GJQsqaUBKTNV-1" vertex="1">
          <mxGeometry x="450" y="30" width="160" height="160" as="geometry">
            <mxRectangle x="550" y="140" width="160" height="26" as="alternateBounds" />
          </mxGeometry>
        </mxCell>
        <mxCell id="Id21dAkma_MPSwXrXoHn-30" value="fechaHoraInicio" style="text;align=left;verticalAlign=top;spacingLeft=4;spacingRight=4;overflow=hidden;rotatable=0;points=[[0,0.5],[1,0.5]];portConstraint=eastwest;rounded=0;shadow=0;html=0;" parent="Id21dAkma_MPSwXrXoHn-26" vertex="1">
          <mxGeometry y="26" width="160" height="26" as="geometry" />
        </mxCell>
        <mxCell id="Id21dAkma_MPSwXrXoHn-55" value="estado:Estado" style="text;align=left;verticalAlign=top;spacingLeft=4;spacingRight=4;overflow=hidden;rotatable=0;points=[[0,0.5],[1,0.5]];portConstraint=eastwest;rounded=0;shadow=0;html=0;" parent="Id21dAkma_MPSwXrXoHn-26" vertex="1">
          <mxGeometry y="52" width="160" height="26" as="geometry" />
        </mxCell>
        <mxCell id="Id21dAkma_MPSwXrXoHn-32" value="" style="line;html=1;strokeWidth=1;align=left;verticalAlign=middle;spacingTop=-1;spacingLeft=3;spacingRight=3;rotatable=0;labelPosition=right;points=[];portConstraint=eastwest;" parent="Id21dAkma_MPSwXrXoHn-26" vertex="1">
          <mxGeometry y="78" width="160" height="8" as="geometry" />
        </mxCell>
        <mxCell id="Id21dAkma_MPSwXrXoHn-35" value="getNombreEstado()" style="text;align=left;verticalAlign=top;spacingLeft=4;spacingRight=4;overflow=hidden;rotatable=0;points=[[0,0.5],[1,0.5]];portConstraint=eastwest;rounded=0;shadow=0;html=0;" parent="Id21dAkma_MPSwXrXoHn-26" vertex="1">
          <mxGeometry y="86" width="160" height="26" as="geometry" />
        </mxCell>
        <mxCell id="Id21dAkma_MPSwXrXoHn-36" value="getFechaHoraInicio()" style="text;align=left;verticalAlign=top;spacingLeft=4;spacingRight=4;overflow=hidden;rotatable=0;points=[[0,0.5],[1,0.5]];portConstraint=eastwest;rounded=0;shadow=0;html=0;" parent="Id21dAkma_MPSwXrXoHn-26" vertex="1">
          <mxGeometry y="112" width="160" height="26" as="geometry" />
        </mxCell>
        <mxCell id="Id21dAkma_MPSwXrXoHn-37" value="Estado" style="swimlane;fontStyle=0;align=center;verticalAlign=top;childLayout=stackLayout;horizontal=1;startSize=26;horizontalStack=0;resizeParent=1;resizeLast=0;collapsible=1;marginBottom=0;rounded=0;shadow=0;strokeWidth=1;" parent="WIyWlLk6GJQsqaUBKTNV-1" vertex="1">
          <mxGeometry x="660" y="30" width="160" height="140" as="geometry">
            <mxRectangle x="550" y="140" width="160" height="26" as="alternateBounds" />
          </mxGeometry>
        </mxCell>
        <mxCell id="Id21dAkma_MPSwXrXoHn-38" value="nombre" style="text;align=left;verticalAlign=top;spacingLeft=4;spacingRight=4;overflow=hidden;rotatable=0;points=[[0,0.5],[1,0.5]];portConstraint=eastwest;rounded=0;shadow=0;html=0;" parent="Id21dAkma_MPSwXrXoHn-37" vertex="1">
          <mxGeometry y="26" width="160" height="26" as="geometry" />
        </mxCell>
        <mxCell id="Id21dAkma_MPSwXrXoHn-39" value="" style="line;html=1;strokeWidth=1;align=left;verticalAlign=middle;spacingTop=-1;spacingLeft=3;spacingRight=3;rotatable=0;labelPosition=right;points=[];portConstraint=eastwest;" parent="Id21dAkma_MPSwXrXoHn-37" vertex="1">
          <mxGeometry y="52" width="160" height="8" as="geometry" />
        </mxCell>
        <mxCell id="Id21dAkma_MPSwXrXoHn-42" value="esFinalizada()" style="text;align=left;verticalAlign=top;spacingLeft=4;spacingRight=4;overflow=hidden;rotatable=0;points=[[0,0.5],[1,0.5]];portConstraint=eastwest;rounded=0;shadow=0;html=0;" parent="Id21dAkma_MPSwXrXoHn-37" vertex="1">
          <mxGeometry y="60" width="160" height="26" as="geometry" />
        </mxCell>
        <mxCell id="xruAeM29R6y8BNOT5qQD-24" value="esIniciada()" style="text;align=left;verticalAlign=top;spacingLeft=4;spacingRight=4;overflow=hidden;rotatable=0;points=[[0,0.5],[1,0.5]];portConstraint=eastwest;rounded=0;shadow=0;html=0;" vertex="1" parent="Id21dAkma_MPSwXrXoHn-37">
          <mxGeometry y="86" width="160" height="26" as="geometry" />
        </mxCell>
        <mxCell id="Id21dAkma_MPSwXrXoHn-43" value="getNombre()" style="text;align=left;verticalAlign=top;spacingLeft=4;spacingRight=4;overflow=hidden;rotatable=0;points=[[0,0.5],[1,0.5]];portConstraint=eastwest;rounded=0;shadow=0;html=0;" parent="Id21dAkma_MPSwXrXoHn-37" vertex="1">
          <mxGeometry y="112" width="160" height="26" as="geometry" />
        </mxCell>
        <mxCell id="Id21dAkma_MPSwXrXoHn-45" value="1" style="text;html=1;strokeColor=none;fillColor=none;align=center;verticalAlign=middle;whiteSpace=wrap;rounded=0;" parent="WIyWlLk6GJQsqaUBKTNV-1" vertex="1">
          <mxGeometry x="620" y="86" width="60" height="30" as="geometry" />
        </mxCell>
        <mxCell id="Id21dAkma_MPSwXrXoHn-46" value="1..*" style="text;html=1;strokeColor=none;fillColor=none;align=center;verticalAlign=middle;whiteSpace=wrap;rounded=0;" parent="WIyWlLk6GJQsqaUBKTNV-1" vertex="1">
          <mxGeometry x="520" y="190" width="60" height="30" as="geometry" />
        </mxCell>
        <mxCell id="Id21dAkma_MPSwXrXoHn-69" style="edgeStyle=orthogonalEdgeStyle;rounded=0;orthogonalLoop=1;jettySize=auto;html=1;" parent="WIyWlLk6GJQsqaUBKTNV-1" source="Id21dAkma_MPSwXrXoHn-47" target="Id21dAkma_MPSwXrXoHn-64" edge="1">
          <mxGeometry relative="1" as="geometry">
            <Array as="points">
              <mxPoint x="160" y="100" />
              <mxPoint x="160" y="100" />
            </Array>
          </mxGeometry>
        </mxCell>
        <mxCell id="Id21dAkma_MPSwXrXoHn-47" value="RepuestaCliente" style="swimlane;fontStyle=0;align=center;verticalAlign=top;childLayout=stackLayout;horizontal=1;startSize=26;horizontalStack=0;resizeParent=1;resizeLast=0;collapsible=1;marginBottom=0;rounded=0;shadow=0;strokeWidth=1;" parent="WIyWlLk6GJQsqaUBKTNV-1" vertex="1">
          <mxGeometry x="180" y="41" width="160" height="120" as="geometry">
            <mxRectangle x="550" y="140" width="160" height="26" as="alternateBounds" />
          </mxGeometry>
        </mxCell>
        <mxCell id="Id21dAkma_MPSwXrXoHn-52" value="fechaEncuesta" style="text;align=left;verticalAlign=top;spacingLeft=4;spacingRight=4;overflow=hidden;rotatable=0;points=[[0,0.5],[1,0.5]];portConstraint=eastwest;rounded=0;shadow=0;html=0;" parent="Id21dAkma_MPSwXrXoHn-47" vertex="1">
          <mxGeometry y="26" width="160" height="26" as="geometry" />
        </mxCell>
        <mxCell id="Id21dAkma_MPSwXrXoHn-63" value="repuestaPosible: RepuestasPosible" style="text;align=left;verticalAlign=top;spacingLeft=4;spacingRight=4;overflow=hidden;rotatable=0;points=[[0,0.5],[1,0.5]];portConstraint=eastwest;rounded=0;shadow=0;html=0;" parent="Id21dAkma_MPSwXrXoHn-47" vertex="1">
          <mxGeometry y="52" width="160" height="26" as="geometry" />
        </mxCell>
        <mxCell id="Id21dAkma_MPSwXrXoHn-53" value="" style="line;html=1;strokeWidth=1;align=left;verticalAlign=middle;spacingTop=-1;spacingLeft=3;spacingRight=3;rotatable=0;labelPosition=right;points=[];portConstraint=eastwest;" parent="Id21dAkma_MPSwXrXoHn-47" vertex="1">
          <mxGeometry y="78" width="160" height="8" as="geometry" />
        </mxCell>
        <mxCell id="Id21dAkma_MPSwXrXoHn-62" value="getDescripcionRta()" style="text;html=1;strokeColor=none;fillColor=none;align=left;verticalAlign=middle;whiteSpace=wrap;rounded=0;" parent="Id21dAkma_MPSwXrXoHn-47" vertex="1">
          <mxGeometry y="86" width="160" height="30" as="geometry" />
        </mxCell>
        <mxCell id="Id21dAkma_MPSwXrXoHn-61" value="0..*" style="text;html=1;strokeColor=none;fillColor=none;align=center;verticalAlign=middle;whiteSpace=wrap;rounded=0;" parent="WIyWlLk6GJQsqaUBKTNV-1" vertex="1">
          <mxGeometry x="330" y="65" width="60" height="30" as="geometry" />
        </mxCell>
        <mxCell id="xruAeM29R6y8BNOT5qQD-94" style="edgeStyle=orthogonalEdgeStyle;rounded=0;orthogonalLoop=1;jettySize=auto;html=1;entryX=0.342;entryY=-0.001;entryDx=0;entryDy=0;entryPerimeter=0;dashed=1;dashPattern=8 8;" edge="1" parent="WIyWlLk6GJQsqaUBKTNV-1" source="Id21dAkma_MPSwXrXoHn-64" target="xruAeM29R6y8BNOT5qQD-5">
          <mxGeometry relative="1" as="geometry" />
        </mxCell>
        <mxCell id="Id21dAkma_MPSwXrXoHn-64" value="RepuestaPosible" style="swimlane;fontStyle=0;align=center;verticalAlign=top;childLayout=stackLayout;horizontal=1;startSize=26;horizontalStack=0;resizeParent=1;resizeLast=0;collapsible=1;marginBottom=0;rounded=0;shadow=0;strokeWidth=1;" parent="WIyWlLk6GJQsqaUBKTNV-1" vertex="1">
          <mxGeometry x="10" y="35" width="130" height="130" as="geometry">
            <mxRectangle x="550" y="140" width="160" height="26" as="alternateBounds" />
          </mxGeometry>
        </mxCell>
        <mxCell id="Id21dAkma_MPSwXrXoHn-65" value="descripcion" style="text;align=left;verticalAlign=top;spacingLeft=4;spacingRight=4;overflow=hidden;rotatable=0;points=[[0,0.5],[1,0.5]];portConstraint=eastwest;rounded=0;shadow=0;html=0;" parent="Id21dAkma_MPSwXrXoHn-64" vertex="1">
          <mxGeometry y="26" width="130" height="26" as="geometry" />
        </mxCell>
        <mxCell id="Id21dAkma_MPSwXrXoHn-66" value="valor" style="text;align=left;verticalAlign=top;spacingLeft=4;spacingRight=4;overflow=hidden;rotatable=0;points=[[0,0.5],[1,0.5]];portConstraint=eastwest;rounded=0;shadow=0;html=0;" parent="Id21dAkma_MPSwXrXoHn-64" vertex="1">
          <mxGeometry y="52" width="130" height="26" as="geometry" />
        </mxCell>
        <mxCell id="Id21dAkma_MPSwXrXoHn-67" value="" style="line;html=1;strokeWidth=1;align=left;verticalAlign=middle;spacingTop=-1;spacingLeft=3;spacingRight=3;rotatable=0;labelPosition=right;points=[];portConstraint=eastwest;" parent="Id21dAkma_MPSwXrXoHn-64" vertex="1">
          <mxGeometry y="78" width="130" height="8" as="geometry" />
        </mxCell>
        <mxCell id="Id21dAkma_MPSwXrXoHn-68" value="getDescripcionRta()" style="text;html=1;strokeColor=none;fillColor=none;align=left;verticalAlign=middle;whiteSpace=wrap;rounded=0;" parent="Id21dAkma_MPSwXrXoHn-64" vertex="1">
          <mxGeometry y="86" width="130" height="30" as="geometry" />
        </mxCell>
        <mxCell id="Id21dAkma_MPSwXrXoHn-70" value="1" style="text;html=1;strokeColor=none;fillColor=none;align=center;verticalAlign=middle;whiteSpace=wrap;rounded=0;" parent="WIyWlLk6GJQsqaUBKTNV-1" vertex="1">
          <mxGeometry x="120" y="70" width="60" height="30" as="geometry" />
        </mxCell>
        <mxCell id="xruAeM29R6y8BNOT5qQD-93" style="edgeStyle=orthogonalEdgeStyle;rounded=0;orthogonalLoop=1;jettySize=auto;html=1;entryX=0.349;entryY=-0.021;entryDx=0;entryDy=0;entryPerimeter=0;dashed=1;dashPattern=8 8;" edge="1" parent="WIyWlLk6GJQsqaUBKTNV-1" source="xruAeM29R6y8BNOT5qQD-5" target="xruAeM29R6y8BNOT5qQD-13">
          <mxGeometry relative="1" as="geometry">
            <Array as="points">
              <mxPoint x="76" y="450" />
              <mxPoint x="76" y="450" />
            </Array>
          </mxGeometry>
        </mxCell>
        <mxCell id="xruAeM29R6y8BNOT5qQD-5" value="Pregunta" style="swimlane;fontStyle=0;align=center;verticalAlign=top;childLayout=stackLayout;horizontal=1;startSize=26;horizontalStack=0;resizeParent=1;resizeLast=0;collapsible=1;marginBottom=0;rounded=0;shadow=0;strokeWidth=1;" vertex="1" parent="WIyWlLk6GJQsqaUBKTNV-1">
          <mxGeometry x="20" y="263" width="160" height="150" as="geometry">
            <mxRectangle x="550" y="140" width="160" height="26" as="alternateBounds" />
          </mxGeometry>
        </mxCell>
        <mxCell id="xruAeM29R6y8BNOT5qQD-7" value="pregunta" style="text;align=left;verticalAlign=top;spacingLeft=4;spacingRight=4;overflow=hidden;rotatable=0;points=[[0,0.5],[1,0.5]];portConstraint=eastwest;rounded=0;shadow=0;html=0;" vertex="1" parent="xruAeM29R6y8BNOT5qQD-5">
          <mxGeometry y="26" width="160" height="26" as="geometry" />
        </mxCell>
        <mxCell id="xruAeM29R6y8BNOT5qQD-20" value="repuestaPosbile: RepuestaPosible" style="text;align=left;verticalAlign=top;spacingLeft=4;spacingRight=4;overflow=hidden;rotatable=0;points=[[0,0.5],[1,0.5]];portConstraint=eastwest;rounded=0;shadow=0;html=0;" vertex="1" parent="xruAeM29R6y8BNOT5qQD-5">
          <mxGeometry y="52" width="160" height="26" as="geometry" />
        </mxCell>
        <mxCell id="xruAeM29R6y8BNOT5qQD-8" value="" style="line;html=1;strokeWidth=1;align=left;verticalAlign=middle;spacingTop=-1;spacingLeft=3;spacingRight=3;rotatable=0;labelPosition=right;points=[];portConstraint=eastwest;" vertex="1" parent="xruAeM29R6y8BNOT5qQD-5">
          <mxGeometry y="78" width="160" height="8" as="geometry" />
        </mxCell>
        <mxCell id="xruAeM29R6y8BNOT5qQD-9" value="getDescripcion()" style="text;html=1;strokeColor=none;fillColor=none;align=left;verticalAlign=middle;whiteSpace=wrap;rounded=0;" vertex="1" parent="xruAeM29R6y8BNOT5qQD-5">
          <mxGeometry y="86" width="160" height="30" as="geometry" />
        </mxCell>
        <mxCell id="xruAeM29R6y8BNOT5qQD-11" style="edgeStyle=orthogonalEdgeStyle;rounded=0;orthogonalLoop=1;jettySize=auto;html=1;" edge="1" parent="WIyWlLk6GJQsqaUBKTNV-1" source="xruAeM29R6y8BNOT5qQD-10" target="Id21dAkma_MPSwXrXoHn-64">
          <mxGeometry relative="1" as="geometry">
            <Array as="points">
              <mxPoint x="100" y="220" />
              <mxPoint x="100" y="220" />
            </Array>
          </mxGeometry>
        </mxCell>
        <mxCell id="xruAeM29R6y8BNOT5qQD-10" value="" style="rhombus;whiteSpace=wrap;html=1;" vertex="1" parent="WIyWlLk6GJQsqaUBKTNV-1">
          <mxGeometry x="86.5" y="233" width="27" height="30" as="geometry" />
        </mxCell>
        <mxCell id="xruAeM29R6y8BNOT5qQD-12" value="1..*" style="text;html=1;strokeColor=none;fillColor=none;align=center;verticalAlign=middle;whiteSpace=wrap;rounded=0;" vertex="1" parent="WIyWlLk6GJQsqaUBKTNV-1">
          <mxGeometry x="90" y="161" width="60" height="30" as="geometry" />
        </mxCell>
        <mxCell id="xruAeM29R6y8BNOT5qQD-13" value="Encuesta" style="swimlane;fontStyle=0;align=center;verticalAlign=top;childLayout=stackLayout;horizontal=1;startSize=26;horizontalStack=0;resizeParent=1;resizeLast=0;collapsible=1;marginBottom=0;rounded=0;shadow=0;strokeWidth=1;" vertex="1" parent="WIyWlLk6GJQsqaUBKTNV-1">
          <mxGeometry x="20" y="500" width="160" height="110" as="geometry">
            <mxRectangle x="550" y="140" width="160" height="26" as="alternateBounds" />
          </mxGeometry>
        </mxCell>
        <mxCell id="xruAeM29R6y8BNOT5qQD-14" value="pregunta" style="text;align=left;verticalAlign=top;spacingLeft=4;spacingRight=4;overflow=hidden;rotatable=0;points=[[0,0.5],[1,0.5]];portConstraint=eastwest;rounded=0;shadow=0;html=0;" vertex="1" parent="xruAeM29R6y8BNOT5qQD-13">
          <mxGeometry y="26" width="160" height="26" as="geometry" />
        </mxCell>
        <mxCell id="xruAeM29R6y8BNOT5qQD-15" value="" style="line;html=1;strokeWidth=1;align=left;verticalAlign=middle;spacingTop=-1;spacingLeft=3;spacingRight=3;rotatable=0;labelPosition=right;points=[];portConstraint=eastwest;" vertex="1" parent="xruAeM29R6y8BNOT5qQD-13">
          <mxGeometry y="52" width="160" height="8" as="geometry" />
        </mxCell>
        <mxCell id="xruAeM29R6y8BNOT5qQD-16" value="getDescripcionEncuesta()" style="text;html=1;strokeColor=none;fillColor=none;align=left;verticalAlign=middle;whiteSpace=wrap;rounded=0;" vertex="1" parent="xruAeM29R6y8BNOT5qQD-13">
          <mxGeometry y="60" width="160" height="30" as="geometry" />
        </mxCell>
        <mxCell id="xruAeM29R6y8BNOT5qQD-17" style="edgeStyle=orthogonalEdgeStyle;rounded=0;orthogonalLoop=1;jettySize=auto;html=1;" edge="1" parent="WIyWlLk6GJQsqaUBKTNV-1" source="xruAeM29R6y8BNOT5qQD-18" target="xruAeM29R6y8BNOT5qQD-5">
          <mxGeometry relative="1" as="geometry">
            <mxPoint x="-60" y="380" as="targetPoint" />
            <Array as="points">
              <mxPoint x="127" y="430" />
              <mxPoint x="127" y="430" />
            </Array>
          </mxGeometry>
        </mxCell>
        <mxCell id="xruAeM29R6y8BNOT5qQD-18" value="" style="rhombus;whiteSpace=wrap;html=1;" vertex="1" parent="WIyWlLk6GJQsqaUBKTNV-1">
          <mxGeometry x="113.5" y="470" width="27" height="30" as="geometry" />
        </mxCell>
        <mxCell id="xruAeM29R6y8BNOT5qQD-19" value="1..*" style="text;html=1;strokeColor=none;fillColor=none;align=center;verticalAlign=middle;whiteSpace=wrap;rounded=0;" vertex="1" parent="WIyWlLk6GJQsqaUBKTNV-1">
          <mxGeometry x="113.5" y="413" width="60" height="30" as="geometry" />
        </mxCell>
        <mxCell id="xruAeM29R6y8BNOT5qQD-28" value="Cliente" style="swimlane;fontStyle=0;align=center;verticalAlign=top;childLayout=stackLayout;horizontal=1;startSize=26;horizontalStack=0;resizeParent=1;resizeLast=0;collapsible=1;marginBottom=0;rounded=0;shadow=0;strokeWidth=1;" vertex="1" parent="WIyWlLk6GJQsqaUBKTNV-1">
          <mxGeometry x="620" y="400" width="160" height="216" as="geometry">
            <mxRectangle x="550" y="140" width="160" height="26" as="alternateBounds" />
          </mxGeometry>
        </mxCell>
        <mxCell id="xruAeM29R6y8BNOT5qQD-29" value="dni" style="text;align=left;verticalAlign=top;spacingLeft=4;spacingRight=4;overflow=hidden;rotatable=0;points=[[0,0.5],[1,0.5]];portConstraint=eastwest;rounded=0;shadow=0;html=0;" vertex="1" parent="xruAeM29R6y8BNOT5qQD-28">
          <mxGeometry y="26" width="160" height="26" as="geometry" />
        </mxCell>
        <mxCell id="xruAeM29R6y8BNOT5qQD-30" value="nombreCompleto" style="text;align=left;verticalAlign=top;spacingLeft=4;spacingRight=4;overflow=hidden;rotatable=0;points=[[0,0.5],[1,0.5]];portConstraint=eastwest;rounded=0;shadow=0;html=0;" vertex="1" parent="xruAeM29R6y8BNOT5qQD-28">
          <mxGeometry y="52" width="160" height="26" as="geometry" />
        </mxCell>
        <mxCell id="xruAeM29R6y8BNOT5qQD-35" value="nroCelular" style="text;align=left;verticalAlign=top;spacingLeft=4;spacingRight=4;overflow=hidden;rotatable=0;points=[[0,0.5],[1,0.5]];portConstraint=eastwest;rounded=0;shadow=0;html=0;" vertex="1" parent="xruAeM29R6y8BNOT5qQD-28">
          <mxGeometry y="78" width="160" height="26" as="geometry" />
        </mxCell>
        <mxCell id="xruAeM29R6y8BNOT5qQD-31" value="" style="line;html=1;strokeWidth=1;align=left;verticalAlign=middle;spacingTop=-1;spacingLeft=3;spacingRight=3;rotatable=0;labelPosition=right;points=[];portConstraint=eastwest;" vertex="1" parent="xruAeM29R6y8BNOT5qQD-28">
          <mxGeometry y="104" width="160" height="8" as="geometry" />
        </mxCell>
        <mxCell id="xruAeM29R6y8BNOT5qQD-32" value="getNombre()" style="text;html=1;strokeColor=none;fillColor=none;align=left;verticalAlign=middle;whiteSpace=wrap;rounded=0;" vertex="1" parent="xruAeM29R6y8BNOT5qQD-28">
          <mxGeometry y="112" width="160" height="30" as="geometry" />
        </mxCell>
        <mxCell id="xruAeM29R6y8BNOT5qQD-34" value="1" style="text;html=1;strokeColor=none;fillColor=none;align=center;verticalAlign=middle;whiteSpace=wrap;rounded=0;" vertex="1" parent="WIyWlLk6GJQsqaUBKTNV-1">
          <mxGeometry x="570" y="473" width="60" height="30" as="geometry" />
        </mxCell>
        <mxCell id="xruAeM29R6y8BNOT5qQD-50" value="LlamadaCSV" style="swimlane;fontStyle=0;align=left;verticalAlign=top;childLayout=stackLayout;horizontal=1;startSize=26;horizontalStack=0;resizeParent=1;resizeLast=0;collapsible=1;marginBottom=0;rounded=0;shadow=0;strokeWidth=1;" vertex="1" parent="WIyWlLk6GJQsqaUBKTNV-1">
          <mxGeometry x="620" y="860" width="110" height="99" as="geometry">
            <mxRectangle x="550" y="140" width="160" height="26" as="alternateBounds" />
          </mxGeometry>
        </mxCell>
        <mxCell id="xruAeM29R6y8BNOT5qQD-54" value="" style="line;html=1;strokeWidth=1;align=left;verticalAlign=middle;spacingTop=-1;spacingLeft=3;spacingRight=3;rotatable=0;labelPosition=right;points=[];portConstraint=eastwest;" vertex="1" parent="xruAeM29R6y8BNOT5qQD-50">
          <mxGeometry y="26" width="110" height="8" as="geometry" />
        </mxCell>
        <mxCell id="xruAeM29R6y8BNOT5qQD-55" value="crearCSV()" style="text;html=1;strokeColor=none;fillColor=none;align=left;verticalAlign=middle;whiteSpace=wrap;rounded=0;" vertex="1" parent="xruAeM29R6y8BNOT5qQD-50">
          <mxGeometry y="34" width="110" height="30" as="geometry" />
        </mxCell>
        <mxCell id="xruAeM29R6y8BNOT5qQD-83" value="" style="shape=image;verticalLabelPosition=bottom;labelBackgroundColor=default;verticalAlign=top;aspect=fixed;imageAspect=0;image=data:image/png,iVBORw0KGgoAAAANSUhEUgAAAFkAAABJCAYAAABW3Yo0AAAAAXNSR0IArs4c6QAAAARnQU1BAACxjwv8YQUAAAAJcEhZcwAAEnQAABJ0Ad5mH3gAAAGsSURBVHhe7drRroIwEEVR8P//WW1iE0OglDhnz0TOevE+0XZbKzeyPt8Wk3p8Xk3IkQGODHBkgCMDHBngyABHBjgywJEBjgxwZIAjAxwZ4MgARwY4MqD0LyPrun7+Gqv+406pyLNRz1SLXiJyVNytKrFTI6vibmXHTvviowI3bSxyvC18J19d7Nn0oq+ngEaeCfLrdIgxrsIiny0+ehr0eCPImZyx4HbN0XVndnwUeeTRYs5CRKgQOu3uQh33W3ZoaeSjBZCBu4wxO1nkSoG7o7HVuzntuLgTSeSKu7jL2M3YTq4QuKPn4uMCEB5Z/SWipJo7spMrHRUdOScfFwBHBjgywJEBjgxwZAASueK9Mzmn8MgV74lnqebu4wKARa50ZNBzkUQ++thVPJs75TF3u+Mi442WRa64m4/GVn9Zp+zkjNCZb6408miHkIsejaXexY18J2eHzg7c+Fk4gJ/qBJR+Pnl2aoprRsIjN1eiRMoI3LTV5oz8p/beyNv9x6e29yl1ZIAjAxw52N6ZnHJ3cTfeyQBHBjgywJEBjgxwZIAjAxwZ4MgAR5ZblhdWJ8JQJ5usuwAAAABJRU5ErkJggg==;" vertex="1" parent="WIyWlLk6GJQsqaUBKTNV-1">
          <mxGeometry x="150" y="270" width="20" height="16.41" as="geometry" />
        </mxCell>
        <mxCell id="xruAeM29R6y8BNOT5qQD-86" value="" style="shape=image;verticalLabelPosition=bottom;labelBackgroundColor=default;verticalAlign=top;aspect=fixed;imageAspect=0;image=data:image/png,iVBORw0KGgoAAAANSUhEUgAAAFkAAABJCAYAAABW3Yo0AAAAAXNSR0IArs4c6QAAAARnQU1BAACxjwv8YQUAAAAJcEhZcwAAEnQAABJ0Ad5mH3gAAAGsSURBVHhe7drRroIwEEVR8P//WW1iE0OglDhnz0TOevE+0XZbKzeyPt8Wk3p8Xk3IkQGODHBkgCMDHBngyABHBjgywJEBjgxwZIAjAxwZ4MgARwY4MqD0LyPrun7+Gqv+406pyLNRz1SLXiJyVNytKrFTI6vibmXHTvviowI3bSxyvC18J19d7Nn0oq+ngEaeCfLrdIgxrsIiny0+ehr0eCPImZyx4HbN0XVndnwUeeTRYs5CRKgQOu3uQh33W3ZoaeSjBZCBu4wxO1nkSoG7o7HVuzntuLgTSeSKu7jL2M3YTq4QuKPn4uMCEB5Z/SWipJo7spMrHRUdOScfFwBHBjgywJEBjgxwZAASueK9Mzmn8MgV74lnqebu4wKARa50ZNBzkUQ++thVPJs75TF3u+Mi442WRa64m4/GVn9Zp+zkjNCZb6408miHkIsejaXexY18J2eHzg7c+Fk4gJ/qBJR+Pnl2aoprRsIjN1eiRMoI3LTV5oz8p/beyNv9x6e29yl1ZIAjAxw52N6ZnHJ3cTfeyQBHBjgywJEBjgxwZIAjAxwZ4MgAR5ZblhdWJ8JQJ5usuwAAAABJRU5ErkJggg==;" vertex="1" parent="WIyWlLk6GJQsqaUBKTNV-1">
          <mxGeometry x="123" y="41" width="16.66" height="13.67" as="geometry" />
        </mxCell>
        <mxCell id="xruAeM29R6y8BNOT5qQD-87" value="" style="shape=image;verticalLabelPosition=bottom;labelBackgroundColor=default;verticalAlign=top;aspect=fixed;imageAspect=0;image=data:image/png,iVBORw0KGgoAAAANSUhEUgAAAFkAAABJCAYAAABW3Yo0AAAAAXNSR0IArs4c6QAAAARnQU1BAACxjwv8YQUAAAAJcEhZcwAAEnQAABJ0Ad5mH3gAAAGsSURBVHhe7drRroIwEEVR8P//WW1iE0OglDhnz0TOevE+0XZbKzeyPt8Wk3p8Xk3IkQGODHBkgCMDHBngyABHBjgywJEBjgxwZIAjAxwZ4MgARwY4MqD0LyPrun7+Gqv+406pyLNRz1SLXiJyVNytKrFTI6vibmXHTvviowI3bSxyvC18J19d7Nn0oq+ngEaeCfLrdIgxrsIiny0+ehr0eCPImZyx4HbN0XVndnwUeeTRYs5CRKgQOu3uQh33W3ZoaeSjBZCBu4wxO1nkSoG7o7HVuzntuLgTSeSKu7jL2M3YTq4QuKPn4uMCEB5Z/SWipJo7spMrHRUdOScfFwBHBjgywJEBjgxwZAASueK9Mzmn8MgV74lnqebu4wKARa50ZNBzkUQ++thVPJs75TF3u+Mi442WRa64m4/GVn9Zp+zkjNCZb6408miHkIsejaXexY18J2eHzg7c+Fk4gJ/qBJR+Pnl2aoprRsIjN1eiRMoI3LTV5oz8p/beyNv9x6e29yl1ZIAjAxw52N6ZnHJ3cTfeyQBHBjgywJEBjgxwZIAjAxwZ4MgAR5ZblhdWJ8JQJ5usuwAAAABJRU5ErkJggg==;" vertex="1" parent="WIyWlLk6GJQsqaUBKTNV-1">
          <mxGeometry x="313.34000000000003" y="45" width="16.66" height="13.67" as="geometry" />
        </mxCell>
        <mxCell id="xruAeM29R6y8BNOT5qQD-88" value="" style="shape=image;verticalLabelPosition=bottom;labelBackgroundColor=default;verticalAlign=top;aspect=fixed;imageAspect=0;image=data:image/png,iVBORw0KGgoAAAANSUhEUgAAAFkAAABJCAYAAABW3Yo0AAAAAXNSR0IArs4c6QAAAARnQU1BAACxjwv8YQUAAAAJcEhZcwAAEnQAABJ0Ad5mH3gAAAGsSURBVHhe7drRroIwEEVR8P//WW1iE0OglDhnz0TOevE+0XZbKzeyPt8Wk3p8Xk3IkQGODHBkgCMDHBngyABHBjgywJEBjgxwZIAjAxwZ4MgARwY4MqD0LyPrun7+Gqv+406pyLNRz1SLXiJyVNytKrFTI6vibmXHTvviowI3bSxyvC18J19d7Nn0oq+ngEaeCfLrdIgxrsIiny0+ehr0eCPImZyx4HbN0XVndnwUeeTRYs5CRKgQOu3uQh33W3ZoaeSjBZCBu4wxO1nkSoG7o7HVuzntuLgTSeSKu7jL2M3YTq4QuKPn4uMCEB5Z/SWipJo7spMrHRUdOScfFwBHBjgywJEBjgxwZAASueK9Mzmn8MgV74lnqebu4wKARa50ZNBzkUQ++thVPJs75TF3u+Mi442WRa64m4/GVn9Zp+zkjNCZb6408miHkIsejaXexY18J2eHzg7c+Fk4gJ/qBJR+Pnl2aoprRsIjN1eiRMoI3LTV5oz8p/beyNv9x6e29yl1ZIAjAxw52N6ZnHJ3cTfeyQBHBjgywJEBjgxwZIAjAxwZ4MgAR5ZblhdWJ8JQJ5usuwAAAABJRU5ErkJggg==;" vertex="1" parent="WIyWlLk6GJQsqaUBKTNV-1">
          <mxGeometry x="580" y="37" width="16.66" height="13.67" as="geometry" />
        </mxCell>
        <mxCell id="xruAeM29R6y8BNOT5qQD-89" value="" style="shape=image;verticalLabelPosition=bottom;labelBackgroundColor=default;verticalAlign=top;aspect=fixed;imageAspect=0;image=data:image/png,iVBORw0KGgoAAAANSUhEUgAAAFkAAABJCAYAAABW3Yo0AAAAAXNSR0IArs4c6QAAAARnQU1BAACxjwv8YQUAAAAJcEhZcwAAEnQAABJ0Ad5mH3gAAAGsSURBVHhe7drRroIwEEVR8P//WW1iE0OglDhnz0TOevE+0XZbKzeyPt8Wk3p8Xk3IkQGODHBkgCMDHBngyABHBjgywJEBjgxwZIAjAxwZ4MgARwY4MqD0LyPrun7+Gqv+406pyLNRz1SLXiJyVNytKrFTI6vibmXHTvviowI3bSxyvC18J19d7Nn0oq+ngEaeCfLrdIgxrsIiny0+ehr0eCPImZyx4HbN0XVndnwUeeTRYs5CRKgQOu3uQh33W3ZoaeSjBZCBu4wxO1nkSoG7o7HVuzntuLgTSeSKu7jL2M3YTq4QuKPn4uMCEB5Z/SWipJo7spMrHRUdOScfFwBHBjgywJEBjgxwZAASueK9Mzmn8MgV74lnqebu4wKARa50ZNBzkUQ++thVPJs75TF3u+Mi442WRa64m4/GVn9Zp+zkjNCZb6408miHkIsejaXexY18J2eHzg7c+Fk4gJ/qBJR+Pnl2aoprRsIjN1eiRMoI3LTV5oz8p/beyNv9x6e29yl1ZIAjAxw52N6ZnHJ3cTfeyQBHBjgywJEBjgxwZIAjAxwZ4MgAR5ZblhdWJ8JQJ5usuwAAAABJRU5ErkJggg==;" vertex="1" parent="WIyWlLk6GJQsqaUBKTNV-1">
          <mxGeometry x="790" y="35" width="16.66" height="13.67" as="geometry" />
        </mxCell>
        <mxCell id="xruAeM29R6y8BNOT5qQD-90" value="" style="shape=image;verticalLabelPosition=bottom;labelBackgroundColor=default;verticalAlign=top;aspect=fixed;imageAspect=0;image=data:image/png,iVBORw0KGgoAAAANSUhEUgAAAFkAAABJCAYAAABW3Yo0AAAAAXNSR0IArs4c6QAAAARnQU1BAACxjwv8YQUAAAAJcEhZcwAAEnQAABJ0Ad5mH3gAAAGsSURBVHhe7drRroIwEEVR8P//WW1iE0OglDhnz0TOevE+0XZbKzeyPt8Wk3p8Xk3IkQGODHBkgCMDHBngyABHBjgywJEBjgxwZIAjAxwZ4MgARwY4MqD0LyPrun7+Gqv+406pyLNRz1SLXiJyVNytKrFTI6vibmXHTvviowI3bSxyvC18J19d7Nn0oq+ngEaeCfLrdIgxrsIiny0+ehr0eCPImZyx4HbN0XVndnwUeeTRYs5CRKgQOu3uQh33W3ZoaeSjBZCBu4wxO1nkSoG7o7HVuzntuLgTSeSKu7jL2M3YTq4QuKPn4uMCEB5Z/SWipJo7spMrHRUdOScfFwBHBjgywJEBjgxwZAASueK9Mzmn8MgV74lnqebu4wKARa50ZNBzkUQ++thVPJs75TF3u+Mi442WRa64m4/GVn9Zp+zkjNCZb6408miHkIsejaXexY18J2eHzg7c+Fk4gJ/qBJR+Pnl2aoprRsIjN1eiRMoI3LTV5oz8p/beyNv9x6e29yl1ZIAjAxw52N6ZnHJ3cTfeyQBHBjgywJEBjgxwZIAjAxwZ4MgAR5ZblhdWJ8JQJ5usuwAAAABJRU5ErkJggg==;" vertex="1" parent="WIyWlLk6GJQsqaUBKTNV-1">
          <mxGeometry x="740" y="405" width="16.66" height="13.67" as="geometry" />
        </mxCell>
        <mxCell id="xruAeM29R6y8BNOT5qQD-91" value="" style="shape=image;verticalLabelPosition=bottom;labelBackgroundColor=default;verticalAlign=top;aspect=fixed;imageAspect=0;image=data:image/png,iVBORw0KGgoAAAANSUhEUgAAAFkAAABJCAYAAABW3Yo0AAAAAXNSR0IArs4c6QAAAARnQU1BAACxjwv8YQUAAAAJcEhZcwAAEnQAABJ0Ad5mH3gAAAGsSURBVHhe7drRroIwEEVR8P//WW1iE0OglDhnz0TOevE+0XZbKzeyPt8Wk3p8Xk3IkQGODHBkgCMDHBngyABHBjgywJEBjgxwZIAjAxwZ4MgARwY4MqD0LyPrun7+Gqv+406pyLNRz1SLXiJyVNytKrFTI6vibmXHTvviowI3bSxyvC18J19d7Nn0oq+ngEaeCfLrdIgxrsIiny0+ehr0eCPImZyx4HbN0XVndnwUeeTRYs5CRKgQOu3uQh33W3ZoaeSjBZCBu4wxO1nkSoG7o7HVuzntuLgTSeSKu7jL2M3YTq4QuKPn4uMCEB5Z/SWipJo7spMrHRUdOScfFwBHBjgywJEBjgxwZAASueK9Mzmn8MgV74lnqebu4wKARa50ZNBzkUQ++thVPJs75TF3u+Mi442WRa64m4/GVn9Zp+zkjNCZb6408miHkIsejaXexY18J2eHzg7c+Fk4gJ/qBJR+Pnl2aoprRsIjN1eiRMoI3LTV5oz8p/beyNv9x6e29yl1ZIAjAxw52N6ZnHJ3cTfeyQBHBjgywJEBjgxwZIAjAxwZ4MgAR5ZblhdWJ8JQJ5usuwAAAABJRU5ErkJggg==;" vertex="1" parent="WIyWlLk6GJQsqaUBKTNV-1">
          <mxGeometry x="413" y="206" width="16.66" height="13.67" as="geometry" />
        </mxCell>
        <mxCell id="xruAeM29R6y8BNOT5qQD-92" value="" style="shape=image;verticalLabelPosition=bottom;labelBackgroundColor=default;verticalAlign=top;aspect=fixed;imageAspect=0;image=data:image/png,iVBORw0KGgoAAAANSUhEUgAAAFkAAABJCAYAAABW3Yo0AAAAAXNSR0IArs4c6QAAAARnQU1BAACxjwv8YQUAAAAJcEhZcwAAEnQAABJ0Ad5mH3gAAAGsSURBVHhe7drRroIwEEVR8P//WW1iE0OglDhnz0TOevE+0XZbKzeyPt8Wk3p8Xk3IkQGODHBkgCMDHBngyABHBjgywJEBjgxwZIAjAxwZ4MgARwY4MqD0LyPrun7+Gqv+406pyLNRz1SLXiJyVNytKrFTI6vibmXHTvviowI3bSxyvC18J19d7Nn0oq+ngEaeCfLrdIgxrsIiny0+ehr0eCPImZyx4HbN0XVndnwUeeTRYs5CRKgQOu3uQh33W3ZoaeSjBZCBu4wxO1nkSoG7o7HVuzntuLgTSeSKu7jL2M3YTq4QuKPn4uMCEB5Z/SWipJo7spMrHRUdOScfFwBHBjgywJEBjgxwZAASueK9Mzmn8MgV74lnqebu4wKARa50ZNBzkUQ++thVPJs75TF3u+Mi442WRa64m4/GVn9Zp+zkjNCZb6408miHkIsejaXexY18J2eHzg7c+Fk4gJ/qBJR+Pnl2aoprRsIjN1eiRMoI3LTV5oz8p/beyNv9x6e29yl1ZIAjAxw52N6ZnHJ3cTfeyQBHBjgywJEBjgxwZIAjAxwZ4MgAR5ZblhdWJ8JQJ5usuwAAAABJRU5ErkJggg==;" vertex="1" parent="WIyWlLk6GJQsqaUBKTNV-1">
          <mxGeometry x="156.84000000000003" y="508" width="16.66" height="13.67" as="geometry" />
        </mxCell>
        <mxCell id="xruAeM29R6y8BNOT5qQD-95" value="" style="shape=image;verticalLabelPosition=bottom;labelBackgroundColor=default;verticalAlign=top;aspect=fixed;imageAspect=0;image=data:image/png,iVBORw0KGgoAAAANSUhEUgAAAIYAAABSCAYAAACR1qyoAAAAAXNSR0IArs4c6QAAAARnQU1BAACxjwv8YQUAAAAJcEhZcwAAEnQAABJ0Ad5mH3gAAAIhSURBVHhe7dzhboMgGEZh3f3f8yZJWRx5FWyB73WeJ1n2T2m/UzBLs/V7swCFr9dv4A/CgEQYkAgDEmFAIgxIhAGJMCARBiTCgEQYkAgDEmFAIgxIhAGJMCARBiSbMNZ1/f1BPIswyhiIIx5HCSTCgGTxLXF1dNzty+utx99dXhdhvKnXc5Dr6+QouSgF0SuKpPf1eiGMRqMH6BYIYTSYOTCXQHjGOHF1QLU1977eSIRxoGWIn65xxj3exVEi1AaWhtVjYC3XubrL9EIYhZYoeqsFEhEHYeycDaDl0/0ppzgIo8HoIPZc4iCMl6M3fWYUWcQ9S4SxcYoiO7r3rF2DMCA9PgzH3SKL3DXYMQSHKLKotRAGJNs/iUdy2jGSiOOOHaPgFkUSsSbCgEQYkAgD0qO/jxF133fMXis7BiTCgEQYBbe/qSQRa3p0GK7PEy1Gr50dAxJhCE7HSdRaHh/G0Zbs+KyRzTgC2TGMRcZJGBvHXePo3rMemAmjIiIOh2OMMF7OPokzB3V2r1m7RUIYO9FxuESREEahFseIQGrXnR1FQhhCbRC9Amm5TkQUCf8G4cSV4beud8Q1RyCMiiuD7Cn69XOUVKQBzRzS7PsdIYxGowfmEkRGGBf1HqBbEBnPGJ20Povc5XVZhJHs39i7RfEf2YQBLzxjQCIMSIQBiTAgEQYkwoBEGJAIAxJhQCIMSIQBiTAgEQYkwoBEGBCW5QeGVwV+A7K4/QAAAABJRU5ErkJggg==;" vertex="1" parent="WIyWlLk6GJQsqaUBKTNV-1">
          <mxGeometry x="180" y="657" width="23.5" height="14.38" as="geometry" />
        </mxCell>
        <mxCell id="xruAeM29R6y8BNOT5qQD-96" value="" style="shape=image;verticalLabelPosition=bottom;labelBackgroundColor=default;verticalAlign=top;aspect=fixed;imageAspect=0;image=data:image/png,iVBORw0KGgoAAAANSUhEUgAAAEYAAAA1CAYAAAD8mJ3rAAAAAXNSR0IArs4c6QAAAARnQU1BAACxjwv8YQUAAAAJcEhZcwAAEnQAABJ0Ad5mH3gAAAGtSURBVGhD7Zpha8MwDEST/f//vE5QjeJNsSzfyU7Qg9Fv1vXllKSw8/uHo/jD1/uzaICJOc/z9+8JQMS0Mp4gp1bJYFrMU1anZUqMJeUJD7paJYPwe0ykLd6126FxITFeKaj7zwpRlFUSISgpAvo8D8ONsQLKMVnhMxo01JgdpAgyiz1vqDGIML1xozNY7XGLiUqZDe6Zy5DjEhORgg7by4CeR3kqMa6gnHl1brTRFlAxvfAIsuS4xHi+LFvIJxly3I25CpMpRWHPdIuxrsQKKYo1G9Eays33CbjE7NgWhdWacGN2kKIwstQqGXTFoB5/K5jJHmrMTmukoDPVKhmUGIMSY1BiDEqMQYkxCInZ8d0GnakrZsd3Fi8z2WuVDMJidlonRhaXGKuSO95rlNlbwO1XiXVx3GJ2bI01G/HAgDRmhRz2zCExV1ciU87VLERbhOHGrJaTIUUI/UeV0JOADCmkz4uKETwNmQ2cMeM/psQInuCKdxTjzFGmxQgjXwQJS4oAEaNkCWIKUaBiFJagDCEKRYyCEpQpRKGKafGKWiGiJVXMnbj9r2sOx/ECv+PlLc53FNIAAAAASUVORK5CYII=;" vertex="1" parent="WIyWlLk6GJQsqaUBKTNV-1">
          <mxGeometry x="467" y="706" width="19.62" height="14.86" as="geometry" />
        </mxCell>
        <mxCell id="xruAeM29R6y8BNOT5qQD-102" value="" style="shape=image;verticalLabelPosition=bottom;labelBackgroundColor=default;verticalAlign=top;aspect=fixed;imageAspect=0;image=data:image/png,iVBORw0KGgoAAAANSUhEUgAAAIYAAABSCAYAAACR1qyoAAAAAXNSR0IArs4c6QAAAARnQU1BAACxjwv8YQUAAAAJcEhZcwAAEnQAABJ0Ad5mH3gAAAIhSURBVHhe7dzhboMgGEZh3f3f8yZJWRx5FWyB73WeJ1n2T2m/UzBLs/V7swCFr9dv4A/CgEQYkAgDEmFAIgxIhAGJMCARBiTCgEQYkAgDEmFAIgxIhAGJMCARBiSbMNZ1/f1BPIswyhiIIx5HCSTCgGTxLXF1dNzty+utx99dXhdhvKnXc5Dr6+QouSgF0SuKpPf1eiGMRqMH6BYIYTSYOTCXQHjGOHF1QLU1977eSIRxoGWIn65xxj3exVEi1AaWhtVjYC3XubrL9EIYhZYoeqsFEhEHYeycDaDl0/0ppzgIo8HoIPZc4iCMl6M3fWYUWcQ9S4SxcYoiO7r3rF2DMCA9PgzH3SKL3DXYMQSHKLKotRAGJNs/iUdy2jGSiOOOHaPgFkUSsSbCgEQYkAgD0qO/jxF133fMXis7BiTCgEQYBbe/qSQRa3p0GK7PEy1Gr50dAxJhCE7HSdRaHh/G0Zbs+KyRzTgC2TGMRcZJGBvHXePo3rMemAmjIiIOh2OMMF7OPokzB3V2r1m7RUIYO9FxuESREEahFseIQGrXnR1FQhhCbRC9Amm5TkQUCf8G4cSV4beud8Q1RyCMiiuD7Cn69XOUVKQBzRzS7PsdIYxGowfmEkRGGBf1HqBbEBnPGJ20Povc5XVZhJHs39i7RfEf2YQBLzxjQCIMSIQBiTAgEQYkwoBEGJAIAxJhQCIMSIQBiTAgEQYkwoBEGBCW5QeGVwV+A7K4/QAAAABJRU5ErkJggg==;" vertex="1" parent="WIyWlLk6GJQsqaUBKTNV-1">
          <mxGeometry x="704" y="867" width="23.5" height="14.38" as="geometry" />
        </mxCell>
      </root>
    </mxGraphModel>
  </diagram>
</mxfile>
